<?xml version="1.0" encoding="UTF-8" standalone="no"?>
<svg
   xmlns:dc="http://purl.org/dc/elements/1.1/"
   xmlns:cc="http://creativecommons.org/ns#"
   xmlns:rdf="http://www.w3.org/1999/02/22-rdf-syntax-ns#"
   xmlns:svg="http://www.w3.org/2000/svg"
   xmlns="http://www.w3.org/2000/svg"
   xmlns:sodipodi="http://sodipodi.sourceforge.net/DTD/sodipodi-0.dtd"
   xmlns:inkscape="http://www.inkscape.org/namespaces/inkscape"
   version="1.1"
   id="Capa_1"
   x="0px"
   y="0px"
   viewBox="0 0 2500 728"
   style="enable-background:new 0 0 2500 728;"
   xml:space="preserve"
   sodipodi:docname="express.svg"
   inkscape:version="1.0.1 (3bc2e813f5, 2020-09-07)"><metadata
   id="metadata1518"><rdf:RDF><cc:Work
       rdf:about=""><dc:format>image/svg+xml</dc:format><dc:type
         rdf:resource="http://purl.org/dc/dcmitype/StillImage" /></cc:Work></rdf:RDF></metadata><defs
   id="defs1516" /><sodipodi:namedview
   pagecolor="#ffffff"
   bordercolor="#666666"
   borderopacity="1"
   objecttolerance="10"
   gridtolerance="10"
   guidetolerance="10"
   inkscape:pageopacity="0"
   inkscape:pageshadow="2"
   inkscape:window-width="1440"
   inkscape:window-height="837"
   id="namedview1514"
   showgrid="false"
   inkscape:zoom="0.30009612"
   inkscape:cx="1279.4223"
   inkscape:cy="379.87996"
   inkscape:window-x="-8"
   inkscape:window-y="-8"
   inkscape:window-maximized="1"
   inkscape:current-layer="Capa_1"
   inkscape:document-rotation="0" />
<style
   type="text/css"
   id="style1509">
	.st0{fill:#FAFAFA;}
</style>
<path
   class="st0"
   d="M 16.3,568.36626 V 296.38653 H 363.7 V 280.45098 H 16.3 V 32.325692 H 385.6 V 16.390144 H 0 V 584.30181 H 388.9 V 568.36626 Z M 702.1,175.45234 558.1,360.81307 417.3,175.45234 H 396.1 L 548.2,372.74029 381.5,584.30181 H 401 l 157,-199.6343 157.8,199.6343 h 20.3 L 568.7,372.74029 721.6,175.45234 Z M 785.1,724.3 V 469.82004 h 1.6 c 9.8,37.15036 29,66.96841 57.8,89.45416 28.7,22.48574 65.4,33.82638 109.8,33.82638 28.7,0 54.2,-5.67032 76.5,-17.10872 22.2,-11.4384 40.8,-26.88513 55.7,-46.53571 14.9,-19.65059 26.3,-42.42962 34.2,-68.43487 7.9,-26.00526 11.8,-53.28144 11.8,-81.92632 0,-30.79569 -4.1,-59.14728 -12.2,-85.15253 -8.1,-26.00525 -19.9,-48.491 -35.4,-67.65276 -15.5,-19.064 -34.2,-33.92414 -56.1,-44.58043 -22,-10.55852 -46.8,-15.93555 -74.4,-15.93555 -21.2,0 -40.8,3.03069 -59,9.18983 -18.2,6.06137 -34.3,14.66461 -48.4,25.80972 -14.2,11.24287 -26.5,24.53879 -36.6,39.39893 -10.3,15.15344 -18.2,31.67557 -23.6,49.66416 h -1.6 V 175.45234 h -16.3 v 548.7499 h 16.2 z M 954.3,577.94714 c -51,0 -91.9,-17.10872 -122.8,-51.32615 -30.9,-34.21744 -46.4,-83.39278 -46.4,-147.52603 0,-26.49407 3.8,-51.71721 11.4,-75.57165 7.6,-23.85444 18.6,-44.77596 32.9,-62.86232 14.4,-17.98859 32.1,-32.35992 53.3,-42.91844 21.2,-10.55852 45,-15.93555 71.6,-15.93555 27.1,0 50.8,5.27926 71.2,15.93555 20.3,10.55852 37.2,25.02761 50.4,43.3095 13.3,18.28189 23.3,39.2034 30.1,62.86232 6.8,23.56114 10.2,48.68652 10.2,75.18059 0,23.85444 -3.1,47.61112 -9.4,71.17226 -6.2,23.56115 -15.9,44.77596 -28.9,63.64443 -13,18.77071 -29.7,34.21744 -50,46.14466 -20.3,11.92722 -44.9,17.89083 -73.6,17.89083 z m 267.6,6.35467 V 352.89418 c 0,-22.29022 3.3,-43.99385 9.8,-65.20866 6.5,-21.21481 16.5,-39.88775 30.1,-56.11659 13.6,-16.13108 30.8,-28.93817 51.7,-38.22576 20.9,-9.28759 45.7,-13.10039 74.4,-11.53617 v -15.93555 c -25,-0.48882 -46.8,2.15081 -65.5,7.9189 -18.7,5.86584 -34.8,13.78473 -48.4,23.85444 -13.6,10.0697 -24.4,21.89916 -32.5,35.3906 -8.1,13.49145 -14.2,28.15606 -17.9,43.3095 H 1222 V 175.45234 h -16.3 V 584.30181 Z M 1408.2,383.10329 H 1758 c 1.1,-28.0583 -1.8,-55.13896 -8.5,-81.14421 -6.8,-26.00525 -17.6,-49.07758 -32.5,-69.21698 -14.9,-20.13941 -34.2,-36.36825 -57.8,-48.49099 -23.6,-12.12275 -51.7,-18.28189 -84.2,-18.28189 -23.3,0 -46.1,4.79044 -68.3,14.27356 -22.2,9.58088 -41.8,23.46338 -58.6,41.74527 -16.8,18.28189 -30.4,40.66986 -40.7,67.2617 -10.3,26.49407 -15.5,56.70318 -15.5,90.62732 0,30.20911 3.5,58.46293 10.6,84.66371 7.1,26.20078 17.9,49.07758 32.5,68.43487 14.6,19.3573 33.5,34.3152 56.5,44.97149 23,10.55852 50.8,15.64226 83.4,15.15344 47.7,0 87.9,-13.10039 120.4,-39.39894 32.5,-26.29854 51.8,-63.25337 57.8,-110.96225 h -16.3 c -7.1,45.06925 -25.1,78.89563 -54.1,101.38137 -29,22.58351 -65.5,33.82638 -109.4,33.82638 -29.8,0 -55,-5.08373 -75.7,-15.15344 -20.6,-10.0697 -37.4,-23.85444 -50.4,-41.35421 -13,-17.49977 -22.6,-38.03024 -28.9,-61.68915 -6.1,-23.56115 -9.5,-49.07758 -10.1,-76.64705 z m 333.6,-15.93555 h -333.5 c 1.6,-28.64488 7,-54.35684 16.3,-77.13588 9.2,-22.77903 21.3,-42.33185 36.2,-58.46293 14.9,-16.13108 32.3,-28.54712 52.1,-36.95483 19.8,-8.50548 41.1,-12.70933 63.9,-12.70933 27.1,0 51,4.8882 71.6,14.76238 20.6,9.77641 37.8,23.17009 51.7,40.18104 13.8,17.01096 24.3,36.7593 31.3,59.24505 6.9,22.38798 10.4,46.14465 10.4,71.0745 z m 353.9,-70.78121 h 16.3 c 0,-45.55807 -13.6,-78.7001 -40.7,-99.42609 -27.1,-20.72599 -64,-30.99122 -110.6,-30.99122 -26,0 -48,3.22621 -65.9,9.58088 -17.9,6.35467 -32.5,14.56685 -43.9,24.63655 -11.4,10.06971 -19.5,21.21481 -24.4,33.43533 -4.9,12.22051 -7.3,23.85444 -7.3,34.99954 0,22.29022 4.1,39.98552 12.2,53.28144 8.1,13.29592 20.9,23.56115 38.2,30.99122 11.9,5.27926 25.5,10.0697 40.7,14.27356 15.2,4.20385 32.8,8.701 52.9,13.49144 17.9,4.20386 35.5,8.50548 52.9,12.70934 17.4,4.20385 32.7,9.97194 46,17.10872 13.3,7.13677 24.1,16.3266 32.5,27.47171 8.4,11.14511 12.6,25.71196 12.6,43.70055 0,17.49978 -4.2,32.35992 -12.6,44.58043 -8.3,12.12275 -19.3,22.29022 -32.1,29.81805 -13,7.72337 -27.5,13.29592 -43.5,16.71766 -16,3.42175 -31.6,5.1815 -46.8,5.1815 -49.4,0 -87.2,-10.75405 -113.5,-32.16439 -26.3,-21.5081 -39.5,-55.23672 -39.5,-101.38137 h -16.3 c 0,51.42392 14.2,89.06309 42.7,112.91754 28.5,23.85444 70.6,35.78166 126.5,35.78166 17.9,0 35.9,-1.95529 54.1,-5.96361 18.2,-4.00833 34.4,-10.46076 48.8,-19.45506 14.2,-8.89653 26.2,-20.82375 35,-34.99955 9,-14.27356 13.4,-31.77333 13.4,-52.49932 0,-19.65058 -3.9,-35.48837 -11.8,-47.70888 -7.9,-12.22051 -18.2,-22.29022 -30.9,-30.20911 -12.7,-7.91889 -27.1,-14.17579 -43.1,-18.67294 -16.1,-4.49715 -32.2,-8.89654 -48.4,-13.10039 -19.9,-5.08374 -39.8,-10.16747 -59.8,-15.15344 -17.1,-4.20385 -32.9,-9.28759 -47.6,-15.15343 -14.1,-5.86585 -25.4,-14.1758 -33.8,-25.02761 -8.4,-10.85182 -12.6,-26.39631 -12.6,-46.53572 0,-3.71503 1.1,-10.36299 3.3,-19.84611 2.2,-9.58088 7.3,-19.25953 15.5,-29.03594 8.1,-9.77641 20.6,-18.57518 37.4,-26.20077 16.8,-7.72337 39.9,-11.53617 69.2,-11.53617 20.1,0 38.4,2.15081 54.9,6.35467 16.5,4.20385 30.8,11.04734 42.7,20.23717 11.9,9.28759 21.2,21.11704 27.7,35.3906 6.3,14.1758 9.6,31.67557 9.6,52.40156 z m 376.6,0 h 16.3 c 0,-45.55807 -13.6,-78.7001 -40.7,-99.42609 -27.1,-20.72599 -64,-30.99122 -110.6,-30.99122 -26,0 -48,3.22621 -65.9,9.58088 -17.9,6.35467 -32.5,14.56685 -43.9,24.63655 -11.4,10.06971 -19.5,21.21481 -24.4,33.43533 -4.9,12.22051 -7.3,23.85444 -7.3,34.99954 0,22.29022 4.1,39.98552 12.2,53.28144 8.1,13.29592 20.9,23.56115 38.2,30.99122 11.9,5.27926 25.5,10.0697 40.7,14.27356 15.2,4.20385 32.8,8.701 52.9,13.49144 17.9,4.20386 35.5,8.50548 52.9,12.70934 17.4,4.20385 32.7,9.97194 46,17.10872 13.3,7.13677 24.1,16.3266 32.5,27.47171 8.4,11.14511 12.6,25.71196 12.6,43.70055 0,17.49978 -4.2,32.35992 -12.6,44.58043 -8.3,12.12275 -19.3,22.29022 -32.1,29.81805 -13,7.72337 -27.5,13.29592 -43.5,16.71766 -16,3.42175 -31.6,5.1815 -46.8,5.1815 -49.4,0 -87.2,-10.75405 -113.5,-32.16439 -26.3,-21.5081 -39.5,-55.23672 -39.5,-101.38137 h -16.3 c 0,51.42392 14.2,89.06309 42.7,112.91754 28.5,23.85444 70.6,35.78166 126.5,35.78166 17.9,0 35.9,-1.95529 54.1,-5.96361 18.2,-4.00833 34.4,-10.46076 48.8,-19.45506 14.2,-8.89653 26.2,-20.82375 35,-34.99955 9,-14.27356 13.4,-31.77333 13.4,-52.49932 0,-19.65058 -3.9,-35.48837 -11.8,-47.70888 -7.9,-12.22051 -18.2,-22.29022 -30.9,-30.20911 -12.7,-7.91889 -27.1,-14.17579 -43.1,-18.67294 -16.1,-4.49715 -32.2,-8.89654 -48.4,-13.10039 -19.9,-5.08374 -39.8,-10.16747 -59.8,-15.15344 -17.1,-4.20385 -32.9,-9.28759 -47.6,-15.15343 -14.1,-5.86585 -25.4,-14.1758 -33.8,-25.02761 -8.4,-10.85182 -12.6,-26.39631 -12.6,-46.53572 0,-3.71503 1.1,-10.36299 3.3,-19.84611 2.2,-9.58088 7.3,-19.25953 15.5,-29.03594 8.1,-9.77641 20.6,-18.57518 37.4,-26.20077 16.8,-7.72337 39.9,-11.53617 69.2,-11.53617 20.1,0 38.4,2.15081 54.9,6.35467 16.5,4.20385 30.8,11.04734 42.7,20.23717 11.9,9.18982 21.2,21.11704 27.7,35.3906 6.4,14.1758 9.6,31.67557 9.6,52.40156 z"
   id="path1511"
   style="fill:#1c1c1c;fill-opacity:1;stroke-width:0.988757" />
</svg>
