<svg id="Capa_2" data-name="Capa 2" xmlns="http://www.w3.org/2000/svg" viewBox="0 0 251.72 48.5">
  <defs>
    <style>
      .cls-1 {
        fill: #881811;
      }
    </style>
  </defs>
  <title>mongooseLogo</title>
  <path class="cls-1" d="M5.55.63l.16,3.81A12.7,12.7,0,0,1,15.9,0q7.2,0,9.81,5.52a13.07,13.07,0,0,1,4.44-4A13.33,13.33,0,0,1,36.66,0Q48,0,48.15,12V35H42.28V12.31c0-2.45-.57-4.28-1.69-5.49S37.59,5,34.94,5a7.74,7.74,0,0,0-5.42,2A7.85,7.85,0,0,0,27,12.19V35h-5.9V12.47Q21.11,5,13.77,5,8,5,5.87,9.9V35H0V.63Z"/>
  <path class="cls-1" d="M48.33,17.49a20.31,20.31,0,0,1,2-9.08,14.89,14.89,0,0,1,5.52-6.22A15.12,15.12,0,0,1,63.91,0,14.42,14.42,0,0,1,75.24,4.86q4.35,4.84,4.35,12.91v.42a20.3,20.3,0,0,1-1.94,9,14.43,14.43,0,0,1-5.49,6.19A15.13,15.13,0,0,1,64,35.61a14.5,14.5,0,0,1-11.34-4.86q-4.3-4.84-4.31-12.85Zm5.9.7a14.75,14.75,0,0,0,2.64,9.17,9,9,0,0,0,14.21,0q2.64-3.52,2.64-9.84A14.5,14.5,0,0,0,71,8.35,8.88,8.88,0,0,0,56.9,8.28Q54.23,11.75,54.23,18.19Z"/>
  <path class="cls-1" d="M85.36.63,85.55,5A12.51,12.51,0,0,1,95.83,0q10.89,0,11,12.28V35h-5.87V12.25q0-3.71-1.71-5.49C98.13,5.58,96.4,5,94.05,5a8.45,8.45,0,0,0-5,1.53,10.19,10.19,0,0,0-3.36,4V35H79.8V.63Z"/>
  <path class="cls-1" d="M107.12,17.52q0-8,3.72-12.76a12.79,12.79,0,0,1,19.64-.32l.29-3.81h5.36V34.15q0,6.66-4,10.51t-10.6,3.84a17.66,17.66,0,0,1-7.27-1.59,12.52,12.52,0,0,1-5.42-4.35l3-3.52a11.49,11.49,0,0,0,9.24,4.66,8.94,8.94,0,0,0,6.67-2.41,9.21,9.21,0,0,0,2.41-6.79V31.55a12.07,12.07,0,0,1-9.62,4.06,11.75,11.75,0,0,1-9.77-4.86Q107.12,25.91,107.12,17.52Zm5.91.67c0,3.87.79,6.91,2.38,9.14a7.73,7.73,0,0,0,6.66,3.3,8.61,8.61,0,0,0,8.16-5.05V9.9A8.71,8.71,0,0,0,122.13,5a7.79,7.79,0,0,0-6.69,3.34Q113,11.65,113,18.19Z"/>
  <path class="cls-1" d="M136.31,17.49a20.45,20.45,0,0,1,2-9.08,14.89,14.89,0,0,1,5.52-6.22A15.13,15.13,0,0,1,151.9,0a14.44,14.44,0,0,1,11.33,4.86q4.35,4.84,4.34,12.91v.42a20.43,20.43,0,0,1-1.93,9,14.49,14.49,0,0,1-5.49,6.19A15.14,15.14,0,0,1,152,35.61a14.48,14.48,0,0,1-11.33-4.86q-4.32-4.84-4.32-12.85Zm5.91.7c0,3.8.87,6.86,2.63,9.17a9,9,0,0,0,14.22,0q2.63-3.52,2.63-9.84A14.56,14.56,0,0,0,159,8.35a8.89,8.89,0,0,0-14.13-.07Q142.21,11.75,142.22,18.19Z"/>
  <path class="cls-1" d="M166.23,17.49a20.45,20.45,0,0,1,2-9.08,14.89,14.89,0,0,1,5.52-6.22A15.13,15.13,0,0,1,181.82,0a14.44,14.44,0,0,1,11.33,4.86q4.35,4.84,4.34,12.91v.42a20.43,20.43,0,0,1-1.93,9,14.49,14.49,0,0,1-5.49,6.19,15.14,15.14,0,0,1-8.19,2.22,14.48,14.48,0,0,1-11.33-4.86q-4.32-4.84-4.32-12.85Zm5.91.7c0,3.8.87,6.86,2.63,9.17a9,9,0,0,0,14.22,0q2.64-3.52,2.63-9.84a14.56,14.56,0,0,0-2.69-9.14,8.89,8.89,0,0,0-14.13-.07Q172.13,11.75,172.14,18.19Z"/>
  <path class="cls-1" d="M217.7,25.87a4.24,4.24,0,0,0-1.81-3.68,16.65,16.65,0,0,0-6.25-2.29,29.7,29.7,0,0,1-7.08-2.29,10.18,10.18,0,0,1-3.87-3.17,7.72,7.72,0,0,1-1.24-4.38A8.94,8.94,0,0,1,201,2.92,14,14,0,0,1,210.15,0a14.3,14.3,0,0,1,9.46,3,9.57,9.57,0,0,1,3.65,7.71h-5.91a5.27,5.27,0,0,0-2.06-4.16,7.63,7.63,0,0,0-5.14-1.75,8.05,8.05,0,0,0-5,1.4,4.41,4.41,0,0,0-1.8,3.65A3.57,3.57,0,0,0,205,13.08a20.76,20.76,0,0,0,6.06,2.06,31.85,31.85,0,0,1,7.14,2.35,10.21,10.21,0,0,1,4,3.3,7.91,7.91,0,0,1,1.33,4.66,8.82,8.82,0,0,1-3.68,7.4,15.5,15.5,0,0,1-9.55,2.76,17.36,17.36,0,0,1-7.3-1.46,12,12,0,0,1-5-4.06,9.94,9.94,0,0,1-1.78-5.68h5.87a6.15,6.15,0,0,0,2.35,4.69,9.26,9.26,0,0,0,5.84,1.72,9.45,9.45,0,0,0,5.33-1.34A4.15,4.15,0,0,0,217.7,25.87Z"/>
  <path class="cls-1" d="M238.32,35.61A15,15,0,0,1,227,31q-4.38-4.61-4.38-12.28V17.68a20.66,20.66,0,0,1,1.94-9.11A15.17,15.17,0,0,1,230,2.29,13.66,13.66,0,0,1,237.59,0Q244.3,0,248,4.41T251.72,17v2.45H228.45a12.33,12.33,0,0,0,3,8.22,9.39,9.39,0,0,0,7.23,3.11,10.28,10.28,0,0,0,5.27-1.27,13.27,13.27,0,0,0,3.78-3.37l3.58,2.8Q247,35.61,238.32,35.61Zm-.73-30.79a7.79,7.79,0,0,0-6,2.61,12.45,12.45,0,0,0-3,7.23h17.21v-.44a11.12,11.12,0,0,0-2.42-6.92A7.34,7.34,0,0,0,237.59,4.82Z"/>
</svg>
